HIERARCHY
ROOT Hips
{
    OFFSET 0.000000 0.000000 0.000000
    CHANNELS 6 Xposition Yposition Zposition Zrotation Xrotation Yrotation
    JOINT Spine
    {
        OFFSET -0.000000 14.517291 0.000000
        CHANNELS 3 Zrotation Xrotation Yrotation
        JOINT Spine1
        {
            OFFSET -0.000000 37.558300 0.000000
            CHANNELS 3 Zrotation Xrotation Yrotation
            JOINT Neck
            {
                OFFSET -0.000000 37.404057 3.400369
                CHANNELS 3 Zrotation Xrotation Yrotation
                JOINT Head
                {
                    OFFSET -0.000000 24.785618 -3.540803
                    CHANNELS 3 Zrotation Xrotation Yrotation
                    End Site
                    {
                        OFFSET -0.000000 35.408028 0.000000
                    }
                }
            }
            JOINT LeftShoulder
            {
                OFFSET 6.992933 33.973492 -0.192664
                CHANNELS 3 Zrotation Xrotation Yrotation
                JOINT LeftArm
                {
                    OFFSET 21.527611 0.000000 0.000000
                    CHANNELS 3 Zrotation Xrotation Yrotation
                    JOINT LeftForeArm
                    {
                        OFFSET 56.353916 0.000000 0.000000
                        CHANNELS 3 Zrotation Xrotation Yrotation
                        JOINT LeftHand
                        {
                            OFFSET 47.774071 0.000000 0.000000
                            CHANNELS 3 Zrotation Xrotation Yrotation
                            End Site
                            {
                                OFFSET 26.556021 0.000000 0.000000
                            }
                        }
                    }
                }
            }
            JOINT RightShoulder
            {
                OFFSET -7.065357 33.973492 -0.192664
                CHANNELS 3 Zrotation Xrotation Yrotation
                JOINT RightArm
                {
                    OFFSET -21.527611 0.000000 0.000000
                    CHANNELS 3 Zrotation Xrotation Yrotation
                    JOINT RightForeArm
                    {
                        OFFSET -56.353916 0.000000 0.000000
                        CHANNELS 3 Zrotation Xrotation Yrotation
                        JOINT RightHand
                        {
                            OFFSET -47.774071 0.000000 0.000000
                            CHANNELS 3 Zrotation Xrotation Yrotation
                            End Site
                            {
                                OFFSET -26.556021 0.000000 0.000000
                            }
                        }
                    }
                }
            }
        }
    }
    JOINT LeftUpLeg
    {
        OFFSET 17.704014 0.000000 0.000000
        CHANNELS 3 Zrotation Xrotation Yrotation
        JOINT LeftLeg
        {
            OFFSET -0.000000 -81.181816 0.000000
            CHANNELS 3 Zrotation Xrotation Yrotation
            JOINT LeftFoot
            {
                OFFSET -0.000000 -62.821102 0.000000
                CHANNELS 3 Zrotation Xrotation Yrotation
                JOINT LeftToeBase
                {
                    OFFSET -0.000000 -11.507608 26.556021
                    CHANNELS 3 Zrotation Xrotation Yrotation
                    End Site
                    {
                        OFFSET -0.000000 0.000000 7.081605
                    }
                }
            }
        }
    }
    JOINT RightUpLeg
    {
        OFFSET -17.704014 0.000000 0.000000
        CHANNELS 3 Zrotation Xrotation Yrotation
        JOINT RightLeg
        {
            OFFSET -0.000000 -81.181816 0.000000
            CHANNELS 3 Zrotation Xrotation Yrotation
            JOINT RightFoot
            {
                OFFSET -0.000000 -62.821102 0.000000
                CHANNELS 3 Zrotation Xrotation Yrotation
                JOINT RightToeBase
                {
                    OFFSET -0.000000 -11.507608 26.556021
                    CHANNELS 3 Zrotation Xrotation Yrotation
                    End Site
                    {
                        OFFSET -0.000000 0.000000 7.081605
                    }
                }
            }
        }
    }
}
MOTION
Frames:    5
Frame Time:    0.008333
-7.835432    152.337463    -12.826684    0.020016    1.339633    20.847548    -0.089759    0.615643    9.074616    -3.532127    0.675526    3.046160    -3.431901    -0.890030    -12.802670    13.889511    1.539711    -11.022480    2.133245    2.968760    -9.120312    -27.663185    6.566170    -49.842346    -9.487182    -23.476967    -123.612991    -6.519310    -38.026035    -15.230392    -9.189003    6.235111    5.165663    28.461016    -11.191995    62.482800    -5.678463    -24.242811    16.416714    13.672184    -19.075430    38.071960    1.461334    -33.800682    -26.875292    -10.294992    21.369593    -21.116913    -10.294448    3.528825    29.714649    0.000000    0.000000    0.000000    2.457246    11.835305    -11.814668    3.146946    22.268047    -0.895793    -2.974173    -29.993832    -6.523323    0.000000    0.000000    0.000000    
-7.830912    152.329163    -12.829830    0.020237    1.322106    20.876263    -0.085788    0.624165    9.049630    -3.560689    0.683018    3.038245    -3.387198    -0.903982    -12.787676    13.851634    1.537412    -11.017971    2.064202    3.044124    -9.109428    -28.033375    6.818343    -50.246803    -9.284139    -23.790510    -123.573845    -6.501691    -37.981457    -15.164483    -9.163119    6.218458    5.189708    28.427937    -11.172796    62.453594    -5.682826    -24.252661    16.416811    13.658838    -19.093500    38.039967    1.449878    -33.792576    -26.876942    -10.290378    21.379765    -21.156630    -10.305919    3.514429    29.722122    0.000000    0.000000    0.000000    2.470873    11.848846    -11.846289    3.137120    22.277496    -0.901749    -2.967078    -30.003931    -6.515086    0.000000    0.000000    0.000000    
-7.825421    152.322540    -12.836011    0.024289    1.313359    20.897343    -0.087485    0.635044    9.035534    -3.596861    0.676161    3.033543    -3.348230    -0.907283    -12.770114    13.836498    1.527923    -11.006420    2.015425    3.136087    -9.103670    -28.395050    7.097000    -50.677876    -9.034077    -24.180096    -123.531799    -6.399297    -37.944523    -15.018957    -9.135584    6.220168    5.180042    28.411715    -11.169104    62.456112    -5.667716    -24.244337    16.410994    13.647690    -19.091625    38.034603    1.434834    -33.792099    -26.883221    -10.289621    21.389671    -21.168680    -10.305167    3.518800    29.715626    0.000000    0.000000    0.000000    2.473018    11.853941    -11.891638    3.125177    22.290342    -0.889701    -2.978956    -30.015718    -6.514715    0.000000    0.000000    0.000000    
-7.820596    152.316589    -12.835913    0.025871    1.297598    20.916719    -0.090648    0.643282    9.023589    -3.609559    0.677857    3.029687    -3.347174    -0.895165    -12.767895    13.846901    1.505086    -11.000542    1.941755    3.226105    -9.096960    -28.639481    7.464254    -51.104420    -8.771927    -24.721918    -123.505310    -6.317466    -38.025749    -14.878884    -9.140013    6.250382    5.157238    28.409601    -11.164209    62.494484    -5.684662    -24.247269    16.388870    13.676196    -19.083223    38.040192    1.427718    -33.784634    -26.899607    -10.303645    21.397436    -21.146187    -10.298565    3.518736    29.699215    0.000000    0.000000    0.000000    2.481791    11.871032    -11.945516    3.105185    22.293455    -0.884043    -2.948954    -30.027218    -6.468062    0.000000    0.000000    0.000000    
-7.812813    152.311050    -12.840017    0.026845    1.288523    20.933289    -0.089582    0.643768    9.008788    -3.629750    0.687727    3.025169    -3.341832    -0.893711    -12.763885    13.857797    1.490637    -10.994102    1.875425    3.297222    -9.087542    -29.008896    7.682815    -51.489086    -8.651670    -24.961029    -123.509094    -6.216470    -38.070732    -14.715212    -9.132768    6.239887    5.160129    28.391218    -11.147072    62.486038    -5.680730    -24.255173    16.385172    13.676928    -19.092506    38.035500    1.417388    -33.786671    -26.919283    -10.308945    21.410612    -21.164612    -10.303261    3.508221    29.713074    0.000000    0.000000    0.000000    2.485154    11.879000    -11.993935    3.091501    22.298380    -0.893708    -2.922270    -30.036791    -6.419400    0.000000    0.000000    0.000000    
